<svg id="Logo_1" data-name="Logo 1" xmlns="http://www.w3.org/2000/svg" width="582" height="163" viewBox="0 0 582 163">
  <metadata><?xpacket begin="﻿" id="W5M0MpCehiHzreSzNTczkc9d"?>
<x:xmpmeta xmlns:x="adobe:ns:meta/" x:xmptk="Adobe XMP Core 5.6-c138 79.159824, 2016/09/14-01:09:01        ">
   <rdf:RDF xmlns:rdf="http://www.w3.org/1999/02/22-rdf-syntax-ns#">
      <rdf:Description rdf:about=""/>
   </rdf:RDF>
</x:xmpmeta>
                                                                                                    
                                                                                                    
                                                                                                    
                                                                                                    
                                                                                                    
                                                                                                    
                                                                                                    
                                                                                                    
                                                                                                    
                                                                                                    
                                                                                                    
                                                                                                    
                                                                                                    
                                                                                                    
                                                                                                    
                                                                                                    
                                                                                                    
                                                                                                    
                                                                                                    
                                                                                                    
                           
<?xpacket end="w"?></metadata>
<defs>
    <style>
      .cls-1 {
        fill: #e50b44;
        fill-rule: evenodd;
      }
    </style>
  </defs>
  <path id="Photo_copy" data-name="Photo copy" class="cls-1" d="M0.813,163.125h35.25V152.813H12.438V11.063H36.063V0.75H0.813V163.125ZM123.435,14.813a68.386,68.386,0,0,0-34.407,8.906A67.557,67.557,0,0,0,64.185,47.813,63.261,63.261,0,0,0,55,81.188a64.221,64.221,0,0,0,9.187,33.563,68.427,68.427,0,0,0,59.25,33.375,68.428,68.428,0,0,0,59.25-33.375,64.248,64.248,0,0,0,9.187-33.562,63.288,63.288,0,0,0-9.187-33.375,67.6,67.6,0,0,0-24.844-24.094,68.4,68.4,0,0,0-34.406-8.906h0Zm0.187,11.625a53.968,53.968,0,0,1,27.469,7.313,55.384,55.384,0,0,1,20.156,19.875,52.8,52.8,0,0,1,7.5,27.563,53.778,53.778,0,0,1-7.5,27.751,55.639,55.639,0,0,1-20.156,20.156,53.428,53.428,0,0,1-27.469,7.406,54.258,54.258,0,0,1-27.75-7.406,55.382,55.382,0,0,1-20.25-20.156,53.749,53.749,0,0,1-7.5-27.751,52.772,52.772,0,0,1,7.5-27.562,55.667,55.667,0,0,1,48-27.187h0ZM210.808,0.75V11.063h23.625V152.813H210.808v10.312h35.25V0.75h-35.25ZM321.4,69.2c11.8,0,19.8-5.6,25.4-13.2l-7.1-3.9a22.249,22.249,0,0,1-18.3,9.7c-14.6,0-25.7-11.3-25.7-27.1,0-15.9,11.1-27.1,25.7-27.1a22.506,22.506,0,0,1,18.3,9.7l7-3.9C341.4,5.9,333.2.2,321.4,0.2c-19.2,0-34.3,14-34.3,34.5S302.2,69.2,321.4,69.2ZM391.8,68V34.8c0-11.7-8.5-16.3-18.7-16.3-7.9,0-14.1,2.6-19.3,8l3.5,5.2c4.3-4.6,9-6.7,14.8-6.7,7,0,12.2,3.7,12.2,10.2v8.7c-3.9-4.5-9.4-6.6-16-6.6-8.2,0-16.9,5.1-16.9,15.9,0,10.5,8.7,16,16.9,16,6.5,0,12-2.3,16-6.7V68h7.5ZM371,63.8c-7,0-11.9-4.4-11.9-10.5,0-6.2,4.9-10.6,11.9-10.6,5.3,0,10.4,2,13.3,6v9.1C381.4,61.8,376.3,63.8,371,63.8ZM411.3,68V33.8c2.2-3.9,8.5-7.7,13.1-7.7a13.216,13.216,0,0,1,3,.3V18.7c-6.6,0-12.2,3.7-16.1,8.8V19.7h-7.5V68h7.5Zm30,0V1.3h-7.5V68h7.5ZM457,12.8a5.038,5.038,0,0,0,5.1-5,5.051,5.051,0,1,0-10.1,0A5.015,5.015,0,0,0,457,12.8ZM460.8,68V19.7h-7.5V68h7.5Zm27.3,1.2c12.5,0,19-6.5,19-14.6,0-18.8-29.9-11.8-29.9-22.4,0-4.3,4.1-7.6,10.7-7.6,6.2,0,11.5,2.6,14.4,6.1l3.5-5.2c-3.9-3.9-9.7-7-17.9-7-11.5,0-18,6.4-18,13.9,0,17.9,29.9,10.7,29.9,22.4,0,4.8-4,8.3-11.4,8.3a21.886,21.886,0,0,1-15.9-6.9l-3.9,5.4C473.5,66.8,480.2,69.2,488.1,69.2ZM523.8,68V1.3h-7.5V68h7.5Zm33.8,1.2c7.9,0,14.4-2.6,19.2-7.4l-3.6-4.9A21.114,21.114,0,0,1,558.3,63c-10.4,0-16.8-7.6-17.4-16.7H580V44.4c0-14.5-8.6-25.9-23.2-25.9C543,18.5,533,29.8,533,43.8,533,58.9,543.295,69.2,557.6,69.2Zm15-28.4H540.9c0.4-7.4,5.5-16.1,15.8-16.1C567.7,24.7,572.5,33.6,572.6,40.8ZM317.4,93H287.7v70h15.8V143h13.9q13.3,0,20.65-6.75t7.35-18.95q0-11.6-7.3-17.95T317.4,93h0Zm-0.8,36.8H303.5V106.1h13.1q6.7,0,10.25,2.95t3.55,8.75q0,5.9-3.55,8.95T316.6,129.8h0Zm73.1-21.2q-13,.2-18.6,10.1V88.8H355.7V163h15.4V136.5a14.46,14.46,0,0,1,3.35-9.85,11.677,11.677,0,0,1,9.05-3.95,10.277,10.277,0,0,1,7.75,2.95,11.1,11.1,0,0,1,2.85,8.05V163h15.4V129.2q0-9.4-5.35-15t-14.45-5.6h0Zm57.3,0.1a32.429,32.429,0,0,0-15.15,3.4,24.538,24.538,0,0,0-10.15,9.6,30.5,30.5,0,0,0,0,28.75,24.763,24.763,0,0,0,10.15,9.7,34.77,34.77,0,0,0,30.2,0,24.769,24.769,0,0,0,10.15-9.7,30.5,30.5,0,0,0,0-28.75,24.544,24.544,0,0,0-10.15-9.6A32.211,32.211,0,0,0,447,108.7h0Zm0,12.8a12.487,12.487,0,0,1,9.65,4.1,17.14,17.14,0,0,1,0,21.4,13.524,13.524,0,0,1-19.4,0,17.14,17.14,0,0,1,0-21.4,12.6,12.6,0,0,1,9.75-4.1h0Zm69.1,27.2a17.316,17.316,0,0,1-7.5,2q-4.9,0-4.9-6.2V122.3h14.6V111.6H503.7V96.8H488.4v14.8h-7.5v10.6h7.5v24.9q0,8,4.7,12.3t12.2,4.3a29.1,29.1,0,0,0,7.35-.95A25.158,25.158,0,0,0,519.3,160Zm36.4-40a32.429,32.429,0,0,0-15.15,3.4,24.538,24.538,0,0,0-10.15,9.6,30.5,30.5,0,0,0,0,28.75,24.763,24.763,0,0,0,10.15,9.7,34.77,34.77,0,0,0,30.2,0,24.769,24.769,0,0,0,10.15-9.7,30.5,30.5,0,0,0,0-28.75,24.544,24.544,0,0,0-10.15-9.6,32.211,32.211,0,0,0-15.05-3.4h0Zm0,12.8a12.487,12.487,0,0,1,9.65,4.1,17.14,17.14,0,0,1,0,21.4,13.524,13.524,0,0,1-19.4,0,17.14,17.14,0,0,1,0-21.4,12.6,12.6,0,0,1,9.75-4.1h0Z"/>
</svg>
